<svg width="52" height="52" viewBox="0 0 52 52" fill="none" xmlns="http://www.w3.org/2000/svg">
<path d="M10.4 23.4C10.4 22.7104 10.6739 22.0491 11.1615 21.5615C11.6491 21.0739 12.3104 20.8 13 20.8C13.6896 20.8 14.3509 21.0739 14.8385 21.5615C15.3261 22.0491 15.6 22.7104 15.6 23.4C15.6 24.0896 15.3261 24.7509 14.8385 25.2385C14.3509 25.7261 13.6896 26 13 26C12.3104 26 11.6491 25.7261 11.1615 25.2385C10.6739 24.7509 10.4 24.0896 10.4 23.4ZM13 31.2C12.3104 31.2 11.6491 31.4739 11.1615 31.9615C10.6739 32.4491 10.4 33.1104 10.4 33.8C10.4 34.4896 10.6739 35.1509 11.1615 35.6385C11.6491 36.1261 12.3104 36.4 13 36.4C13.6896 36.4 14.3509 36.1261 14.8385 35.6385C15.3261 35.1509 15.6 34.4896 15.6 33.8C15.6 33.1104 15.3261 32.4491 14.8385 31.9615C14.3509 31.4739 13.6896 31.2 13 31.2ZM20.8 23.4C20.8 22.7104 21.0739 22.0491 21.5615 21.5615C22.0491 21.0739 22.7104 20.8 23.4 20.8C24.0896 20.8 24.7509 21.0739 25.2385 21.5615C25.7261 22.0491 26 22.7104 26 23.4C26 24.0896 25.7261 24.7509 25.2385 25.2385C24.7509 25.7261 24.0896 26 23.4 26C22.7104 26 22.0491 25.7261 21.5615 25.2385C21.0739 24.7509 20.8 24.0896 20.8 23.4ZM23.4 31.2C22.7104 31.2 22.0491 31.4739 21.5615 31.9615C21.0739 32.4491 20.8 33.1104 20.8 33.8C20.8 34.4896 21.0739 35.1509 21.5615 35.6385C22.0491 36.1261 22.7104 36.4 23.4 36.4C24.0896 36.4 24.7509 36.1261 25.2385 35.6385C25.7261 35.1509 26 34.4896 26 33.8C26 33.1104 25.7261 32.4491 25.2385 31.9615C24.7509 31.4739 24.0896 31.2 23.4 31.2ZM31.2 23.4C31.2 22.7104 31.4739 22.0491 31.9615 21.5615C32.4491 21.0739 33.1104 20.8 33.8 20.8C34.4896 20.8 35.1509 21.0739 35.6385 21.5615C36.1261 22.0491 36.4 22.7104 36.4 23.4C36.4 24.0896 36.1261 24.7509 35.6385 25.2385C35.1509 25.7261 34.4896 26 33.8 26C33.1104 26 32.4491 25.7261 31.9615 25.2385C31.4739 24.7509 31.2 24.0896 31.2 23.4ZM0 13C0 9.55219 1.36964 6.24558 3.80761 3.80761C6.24558 1.36964 9.55219 0 13 0H39C42.4478 0 45.7544 1.36964 48.1924 3.80761C50.6304 6.24558 52 9.55219 52 13V39C52 42.4478 50.6304 45.7544 48.1924 48.1924C45.7544 50.6304 42.4478 52 39 52H13C9.55219 52 6.24558 50.6304 3.80761 48.1924C1.36964 45.7544 0 42.4478 0 39V13ZM13 5.2C11.3863 5.19915 9.81207 5.69882 8.49425 6.63015C7.17643 7.56147 6.1799 8.87859 5.642 10.4H46.358C45.8201 8.87859 44.8236 7.56147 43.5057 6.63015C42.1879 5.69882 40.6137 5.19915 39 5.2H13ZM46.8 15.6H5.2V39C5.2 41.0687 6.02178 43.0526 7.48457 44.5154C8.94735 45.9782 10.9313 46.8 13 46.8H39C41.0687 46.8 43.0526 45.9782 44.5154 44.5154C45.9782 43.0526 46.8 41.0687 46.8 39V15.6Z" fill="white"/>
</svg>
