<svg width="51" height="58" viewBox="0 0 51 58" fill="none" xmlns="http://www.w3.org/2000/svg">
<path d="M46.75 14.8517H40.8808C42.2541 12.8072 42.7831 10.3105 42.3568 7.88477C41.9306 5.45899 40.5822 3.29224 38.5941 1.83841C36.606 0.384566 34.1325 -0.243577 31.6917 0.085551C29.2508 0.414679 27.032 1.67554 25.5 3.60404C23.968 1.67554 21.7492 0.414679 19.3083 0.085551C16.8675 -0.243577 14.394 0.384566 12.4059 1.83841C10.4178 3.29224 9.06942 5.45899 8.64317 7.88477C8.21693 10.3105 8.74588 12.8072 10.1193 14.8517H4.25C3.12335 14.8533 2.04332 15.3017 1.24666 16.0983C0.449994 16.895 0.00168619 17.975 0 19.1017V27.6017C0.00168619 28.7283 0.449994 29.8083 1.24666 30.605C2.04332 31.4017 3.12335 31.85 4.25 31.8517V53.1017C4.25169 54.2283 4.69999 55.3083 5.49666 56.105C6.29332 56.9017 7.37335 57.35 8.5 57.3517H42.5C43.6267 57.35 44.7067 56.9017 45.5033 56.105C46.3 55.3083 46.7483 54.2283 46.75 53.1017V31.8517C47.8767 31.85 48.9567 31.4017 49.7533 30.605C50.55 29.8083 50.9983 28.7283 51 27.6017V19.1017C50.9983 17.975 50.55 16.895 49.7533 16.0983C48.9567 15.3017 47.8767 14.8533 46.75 14.8517ZM27.625 9.53916C27.625 8.48845 27.9366 7.46133 28.5203 6.58769C29.1041 5.71406 29.9338 5.03314 30.9045 4.63105C31.8752 4.22896 32.9434 4.12375 33.9739 4.32874C35.0044 4.53372 35.951 5.03969 36.694 5.78266C37.437 6.52562 37.9429 7.47222 38.1479 8.50274C38.3529 9.53327 38.2477 10.6014 37.8456 11.5722C37.4435 12.5429 36.7626 13.3726 35.889 13.9563C35.0153 14.5401 33.9882 14.8517 32.9375 14.8517H27.625V9.53916ZM18.0625 4.22666C19.4709 4.22835 20.8212 4.7886 21.8171 5.78452C22.8131 6.78044 23.3733 8.13072 23.375 9.53916V14.8517H18.0625C16.6535 14.8517 15.3023 14.292 14.306 13.2957C13.3097 12.2994 12.75 10.9481 12.75 9.53916C12.75 8.1302 13.3097 6.77894 14.306 5.78266C15.3023 4.78637 16.6535 4.22666 18.0625 4.22666ZM4.25 19.1017H23.375V27.6017H4.25V19.1017ZM8.5 31.8517H23.375V53.1017H8.5V31.8517ZM42.5021 53.1017H27.625V31.8517H42.5L42.5021 53.1017ZM27.625 27.6017V19.1017H46.75L46.7521 27.6017H27.625Z" fill="white"/>
</svg>
