<svg width="53" height="53" viewBox="0 0 53 53" fill="none" xmlns="http://www.w3.org/2000/svg">
<path d="M21.7147 22.575L2.96471 14.475C1.76471 13.925 1.02771 13.037 0.753706 11.811C0.479706 10.585 0.816706 9.498 1.76471 8.55L2.96471 7.35C3.36471 6.95 3.85271 6.65 4.42871 6.45C5.00471 6.25 5.59171 6.2 6.18971 6.3L33.1897 11.1L42.4897 1.725C43.6397 0.575 45.0527 0 46.7287 0C48.4047 0 49.8167 0.575 50.9647 1.725C52.1127 2.875 52.6877 4.288 52.6897 5.964C52.6917 7.64 52.1167 9.052 50.9647 10.2L41.6647 19.575L46.3897 46.5C46.4897 47.1 46.4517 47.7 46.2757 48.3C46.0997 48.9 45.8127 49.4 45.4147 49.8L44.2147 50.925C43.2647 51.875 42.1647 52.225 40.9147 51.975C39.6647 51.725 38.7647 51 38.2147 49.8L30.1897 31.05L22.5397 38.625L24.1897 47.925C24.2897 48.425 24.2647 48.913 24.1147 49.389C23.9647 49.865 23.7147 50.277 23.3647 50.625L22.0897 51.9C21.3897 52.6 20.5277 52.875 19.5037 52.725C18.4797 52.575 17.7167 52.05 17.2147 51.15L11.7397 41.025L1.61471 35.55C0.714705 35.05 0.189706 34.288 0.0397059 33.264C-0.110294 32.24 0.164706 31.377 0.864706 30.675L2.13971 29.4C2.48971 29.05 2.90271 28.8 3.37871 28.65C3.85471 28.5 4.34171 28.475 4.83971 28.575L14.0647 30.15L21.7147 22.575Z" fill="#7A4787"/>
</svg>
