<svg width="65" height="60" viewBox="0 0 65 60" fill="none" xmlns="http://www.w3.org/2000/svg">
<path d="M47.5529 28.2759H37.6736C39.9574 27.665 42.105 26.626 44.003 25.2138C44.6818 24.5663 45.2244 23.7891 45.5988 22.928C45.9731 22.0669 46.1716 21.1394 46.1826 20.2001C46.1936 19.2609 46.0169 18.3289 45.6628 17.4593C45.3087 16.5896 44.7844 15.7999 44.1209 15.1366C43.4574 14.4733 42.6681 13.95 41.7996 13.5974C40.9311 13.2449 40.0009 13.0702 39.064 13.0839C38.1271 13.0975 37.2023 13.2991 36.3444 13.6767C35.4864 14.0544 34.7126 14.6005 34.0686 15.2828C33.3723 16.1062 32.8146 17.038 32.4174 18.0414C32.0213 17.0314 31.4533 16.098 30.7388 15.2828C30.1035 14.5662 29.3289 13.9874 28.4624 13.5818C27.5959 13.1762 26.6558 12.9524 25.7 12.9242C24.7441 12.896 23.7925 13.064 22.9037 13.4178C22.0149 13.7715 21.2077 14.3037 20.5314 14.9815C19.8552 15.6594 19.3244 16.4687 18.9715 17.3596C18.6185 18.2506 18.451 19.2045 18.4791 20.1627C18.5073 21.1209 18.7305 22.0632 19.1351 22.9318C19.5397 23.8004 20.1171 24.577 20.8319 25.2138C22.7299 26.626 24.8775 27.665 27.1613 28.2759H17.282C16.0047 28.2759 14.7798 28.7845 13.8767 29.6898C12.9735 30.5952 12.4661 31.8231 12.4661 33.1034V35.8621C12.4734 37.1402 12.9831 38.3639 13.8846 39.2677C14.7862 40.1715 16.007 40.6824 17.282 40.6897H29.7481C29.9306 40.6897 30.1055 40.617 30.2346 40.4877C30.3636 40.3583 30.4361 40.1829 30.4361 40V28.2759H34.5639V40C34.5639 40.1829 34.6364 40.3583 34.7654 40.4877C34.8945 40.617 35.0694 40.6897 35.2519 40.6897H47.6355C48.9105 40.6824 50.1312 40.1715 51.0328 39.2677C51.9344 38.3639 52.4441 37.1402 52.4513 35.8621V33.1034C52.4514 32.4625 52.3242 31.8279 52.077 31.2367C51.8298 30.6455 51.4677 30.1096 51.0117 29.6602C50.5558 29.2109 50.0151 28.857 49.4212 28.6193C48.8274 28.3816 48.1923 28.2649 47.5529 28.2759ZM38.0038 19.1724C38.145 19.0317 38.3124 18.9203 38.4966 18.8446C38.6807 18.7688 38.878 18.7302 39.0771 18.731C39.4667 18.7497 39.8372 18.9061 40.1228 19.1724C40.4001 19.456 40.5554 19.8373 40.5554 20.2345C40.5554 20.6316 40.4001 21.0129 40.1228 21.2966C38.9618 21.9688 37.7235 22.4969 36.4352 22.869C36.7954 21.5736 37.3227 20.3309 38.0038 19.1724ZM24.7671 19.1724C25.0488 18.9026 25.4233 18.7521 25.8129 18.7521C26.2024 18.7521 26.577 18.9026 26.8586 19.1724C27.5364 20.3423 28.0635 21.5937 28.4272 22.8966C27.1389 22.5244 25.9006 21.9964 24.7396 21.3241C24.5948 21.1851 24.4795 21.0181 24.4008 20.8332C24.322 20.6483 24.2814 20.4493 24.2814 20.2483C24.2814 20.0472 24.322 19.8483 24.4008 19.6634C24.4795 19.4785 24.5948 19.3115 24.7396 19.1724H24.7671ZM35.2519 44.8276C35.0694 44.8276 34.8945 44.9002 34.7654 45.0296C34.6364 45.1589 34.5639 45.3343 34.5639 45.5172V59.3103C34.5639 59.4933 34.6364 59.6687 34.7654 59.798C34.8945 59.9273 35.0694 60 35.2519 60H42.3243C43.5397 59.9895 44.7067 59.5213 45.5937 58.6883C46.4807 57.8553 47.0229 56.7185 47.1126 55.5035L47.8281 45.5448C47.836 45.4487 47.8229 45.3519 47.7896 45.2614C47.7564 45.1709 47.7037 45.0887 47.6355 45.0207C47.5718 44.9544 47.4945 44.9028 47.409 44.8695C47.3235 44.8362 47.2317 44.8218 47.1401 44.8276H35.2519ZM30.3535 45.5172C30.3535 45.3343 30.281 45.1589 30.152 45.0296C30.023 44.9002 29.848 44.8276 29.6655 44.8276H17.7773C17.6817 44.8231 17.5862 44.8379 17.4964 44.871C17.4065 44.9042 17.3243 44.9551 17.2544 45.0207C17.1348 45.1679 17.0757 45.3554 17.0893 45.5448L17.7773 55.5035C17.8736 56.7209 18.4216 57.858 19.3131 58.6904C20.2046 59.5228 21.3749 59.99 22.5931 60H29.7481C29.9306 60 30.1055 59.9273 30.2346 59.798C30.3636 59.6687 30.4361 59.4933 30.4361 59.3103L30.3535 45.5172ZM32.5 9.65517C33.2299 9.65517 33.9298 9.36453 34.4459 8.84719C34.962 8.32985 35.2519 7.62818 35.2519 6.89655V2.75862C35.2519 2.02699 34.962 1.32532 34.4459 0.807981C33.9298 0.290639 33.2299 0 32.5 0C31.7701 0 31.0702 0.290639 30.5541 0.807981C30.038 1.32532 29.7481 2.02699 29.7481 2.75862V6.89655C29.7481 7.62818 30.038 8.32985 30.5541 8.84719C31.0702 9.36453 31.7701 9.65517 32.5 9.65517ZM16.3188 16.1931C16.5767 15.9367 16.7815 15.6315 16.9212 15.2954C17.0609 14.9592 17.1328 14.5987 17.1328 14.2345C17.1328 13.8703 17.0609 13.5097 16.9212 13.1736C16.7815 12.8374 16.5767 12.5323 16.3188 12.2759L13.4018 9.46207C12.8862 8.94827 12.1887 8.65988 11.4617 8.65988C10.7347 8.65988 10.0372 8.94827 9.52159 9.46207C9.25526 9.7194 9.04341 10.0279 8.89871 10.3692C8.75401 10.7105 8.67944 11.0775 8.67944 11.4483C8.67944 11.8191 8.75401 12.1861 8.89871 12.5274C9.04341 12.8686 9.25526 13.1771 9.52159 13.4345L12.4386 16.1931C12.9542 16.7069 13.6517 16.9953 14.3787 16.9953C15.1057 16.9953 15.8032 16.7069 16.3188 16.1931ZM6.87976 29.6552H2.75191C2.02205 29.6552 1.3221 29.9458 0.806014 30.4632C0.289932 30.9805 0 31.6822 0 32.4138C0 33.1454 0.289932 33.8471 0.806014 34.3644C1.3221 34.8818 2.02205 35.1724 2.75191 35.1724H6.87976C7.60961 35.1724 8.30957 34.8818 8.82565 34.3644C9.34174 33.8471 9.63167 33.1454 9.63167 32.4138C9.63167 31.6822 9.34174 30.9805 8.82565 30.4632C8.30957 29.9458 7.60961 29.6552 6.87976 29.6552ZM55.4784 9.46207C54.9628 8.94827 54.2653 8.65988 53.5383 8.65988C52.8113 8.65988 52.1138 8.94827 51.5982 9.46207L48.6812 12.3862C48.4233 12.6427 48.2185 12.9478 48.0788 13.2839C47.9391 13.6201 47.8672 13.9807 47.8672 14.3448C47.8672 14.709 47.9391 15.0696 48.0788 15.4057C48.2185 15.7419 48.4233 16.047 48.6812 16.3034C49.1968 16.8172 49.8943 17.1056 50.6213 17.1056C51.3483 17.1056 52.0458 16.8172 52.5614 16.3034L55.4784 13.4345C55.7447 13.1771 55.9566 12.8686 56.1013 12.5274C56.246 12.1861 56.3206 11.8191 56.3206 11.4483C56.3206 11.0775 56.246 10.7105 56.1013 10.3692C55.9566 10.0279 55.7447 9.7194 55.4784 9.46207ZM62.2481 29.6552H58.1202C57.3904 29.6552 56.6904 29.9458 56.1743 30.4632C55.6583 30.9805 55.3683 31.6822 55.3683 32.4138C55.3683 33.1454 55.6583 33.8471 56.1743 34.3644C56.6904 34.8818 57.3904 35.1724 58.1202 35.1724H62.2481C62.9779 35.1724 63.6779 34.8818 64.194 34.3644C64.7101 33.8471 65 33.1454 65 32.4138C65 31.6822 64.7101 30.9805 64.194 30.4632C63.6779 29.9458 62.9779 29.6552 62.2481 29.6552Z" fill="#7A4787"/>
</svg>
