<svg width="64" height="55" viewBox="0 0 64 55" fill="none" xmlns="http://www.w3.org/2000/svg">
<path d="M33.386 52.6358L33.4177 52.6301C33.4426 52.6339 33.459 52.6512 33.4667 52.682L33.5157 53.9128L33.5041 53.9618L33.4695 54.0079L33.1698 54.2213L33.1352 54.2328L33.0919 54.2213L32.7921 54.0079L32.7633 53.9705L32.7489 53.9128L32.7979 52.6791L32.8094 52.6502C32.8248 52.631 32.8479 52.6262 32.8786 52.6358L33.0833 52.7367L33.1236 52.7483L33.1813 52.7367L33.386 52.6358Z" fill="#7A4787"/>
<path d="M34.1441 52.3101L34.1815 52.3043C34.2104 52.312 34.2296 52.3332 34.2392 52.3678L34.3372 54.1377L34.3257 54.178C34.3065 54.203 34.2786 54.2107 34.2421 54.2011L33.6627 53.933L33.6396 53.9128L33.6252 53.8782L33.5733 52.6387L33.582 52.607L33.6108 52.5782L34.1441 52.3101Z" fill="#7A4787"/>
<path d="M32.0781 52.3031C32.0926 52.2999 32.1078 52.3024 32.1205 52.3101L32.6509 52.5753L32.6797 52.6041L32.6884 52.6387L32.6394 53.8782L32.6278 53.9099L32.599 53.933L32.0196 54.2011L31.9764 54.2068C31.9456 54.1953 31.9293 54.1722 31.9274 54.1377L32.0254 52.3678L32.0427 52.3274C32.0509 52.315 32.0636 52.3064 32.0781 52.3031Z" fill="#7A4787"/>
<path fill-rule="evenodd" clip-rule="evenodd" d="M57.6515 37.4735C58.416 37.4735 59.1492 37.7772 59.6898 38.3178C60.2304 38.8584 60.5341 39.5916 60.5341 40.3561C60.5341 41.1206 60.2304 41.8538 59.6898 42.3944C59.1492 42.9349 58.416 43.2386 57.6515 43.2386H2.88259C2.11809 43.2386 1.38489 42.9349 0.844305 42.3944C0.303717 41.8538 1.80647e-05 41.1206 1.80647e-05 40.3561C1.80647e-05 39.5916 0.303717 38.8584 0.844305 38.3178C1.38489 37.7772 2.11809 37.4735 2.88259 37.4735H57.6515ZM31.7084 0C41.0018 0 48.8366 3.09877 54.3885 7.46299C59.8394 11.7465 63.4167 17.5405 63.4167 23.0606C63.4167 25.4877 62.673 27.5574 61.3614 29.2293C60.0844 30.8609 58.3808 31.9678 56.6455 32.7288C53.2268 34.2219 49.1595 34.5909 46.1212 34.5909H5.74787C4.9917 34.5905 4.24303 34.441 3.54471 34.151C2.84639 33.8609 2.21214 33.4359 1.67825 32.9004C1.14436 32.365 0.721321 31.7294 0.433349 31.0302C0.145376 30.331 -0.00187719 29.5819 1.80647e-05 28.8258V5.76515C1.80647e-05 2.59144 2.56551 0 5.7594 0H31.7084ZM17.2955 5.76515H5.76517V14.4129H17.2955V5.76515ZM31.7084 5.76515H23.0606V14.4129H34.5909V5.88046C33.9559 5.82926 33.3196 5.79562 32.6827 5.77957L31.7084 5.76515ZM40.3561 6.86918V14.4129H53.4747C52.6558 13.5392 51.7701 12.7306 50.8256 11.9944C48.0526 9.81517 44.5128 7.9732 40.3561 6.86918Z" fill="#7A4787"/>
</svg>
