<svg width="64" height="59" viewBox="0 0 64 59" fill="none" xmlns="http://www.w3.org/2000/svg">
<path d="M48.8402 38.5956L53.193 7.12913C53.3286 6.25152 53.2643 5.35528 53.0047 4.50506C52.7452 3.65483 52.2968 2.87182 51.692 2.21249C51.1184 1.53042 50.4007 0.979213 49.5885 0.597148C48.7764 0.215084 47.8893 0.01132 46.989 5.78876e-06H6.21257C5.32527 -0.00119571 4.44803 0.18465 3.64005 0.545002C2.83207 0.905354 2.11215 1.43183 1.52886 2.0889C0.945579 2.74596 0.512507 3.51834 0.258871 4.35389C0.00523401 5.18945 -0.063065 6.06875 0.0585818 6.93246L5.81231 48.6255C6.00352 50.1084 6.72973 51.4747 7.85899 52.4762C8.98825 53.4776 10.4456 54.0478 11.9663 54.083H36.182C39.9427 57.1233 44.6231 58.8524 49.4906 58.9996H50.1911C55.3541 59.0317 60.3197 57.0516 64 53.493L48.8402 38.5956ZM46.989 6.1458L46.2385 11.5049H6.96305L6.21257 6.1458H46.989ZM28.1268 37.9564C28.2443 41.4141 29.2236 44.7906 30.9786 47.7897H11.9663L7.81361 17.6507H45.1878L43.0865 32.9415L33.7304 23.7473C31.8404 25.6013 30.3656 27.823 29.4006 30.27C28.4356 32.7169 28.0017 35.335 28.1268 37.9564ZM49.6907 52.7063C45.6892 52.5327 41.9014 50.8824 39.0839 48.0847C36.2153 45.3057 34.5181 41.5663 34.3308 37.6123C34.2813 36.1829 34.4671 34.7551 34.8811 33.3839L44.4373 42.8239L53.9935 52.2147C52.7563 52.5554 51.4759 52.721 50.1911 52.7063H49.6907Z" fill="#784789"/>
</svg>
