<svg width="71" height="68" viewBox="0 0 71 68" fill="none" xmlns="http://www.w3.org/2000/svg">
<path d="M64.5455 25.9695C64.5455 29.4991 61.6732 32.381 58.1555 32.381H54.8636V25.4514C60.4145 24.0267 64.5455 19.0076 64.5455 13.0171V12.9524L58.0909 13.0171C58.0909 16.5467 55.2186 19.4286 51.7009 19.4286H50.0227L35.5 0L20.9773 19.4286H19.2991C15.7814 19.4286 12.9091 16.5467 12.9091 13.0171H6.45455C6.45455 19.04 10.5855 24.0267 16.1364 25.4514V32.381H12.8445C9.32682 32.381 6.45455 29.4991 6.45455 25.9695H0C0 31.9924 4.13091 36.979 9.68182 38.4038V68H32.2727V55.0476C32.2727 53.2667 33.725 51.8095 35.5 51.8095C37.275 51.8095 38.7273 53.2667 38.7273 55.0476V68H61.3182V38.4038C66.8691 36.979 71 31.96 71 25.9695V25.9048L64.5455 25.9695ZM35.5 10.7829L41.9545 19.4286H29.0455L35.5 10.7829ZM22.5909 25.9048H48.4091V32.381H22.5909V25.9048ZM54.8636 61.5238H45.1818V55.0476C45.1818 49.7048 40.825 45.3333 35.5 45.3333C30.175 45.3333 25.8182 49.7048 25.8182 55.0476V61.5238H16.1364V38.8571H54.8636V61.5238Z" fill="#7A4787"/>
</svg>
