<svg width="62" height="62" viewBox="0 0 62 62" fill="none" xmlns="http://www.w3.org/2000/svg">
<path d="M40.0416 5.16675C39.5328 5.16675 39.0289 5.26698 38.5587 5.46172C38.0886 5.65645 37.6614 5.94188 37.3016 6.30171C36.9418 6.66154 36.6563 7.08871 36.4616 7.55885C36.2669 8.02899 36.1666 8.53288 36.1666 9.04175C36.1666 9.55062 36.2669 10.0545 36.4616 10.5246C36.6563 10.9948 36.9418 11.422 37.3016 11.7818C37.6614 12.1416 38.0886 12.427 38.5587 12.6218C39.0289 12.8165 39.5328 12.9167 40.0416 12.9167C40.5505 12.9167 41.0544 12.8165 41.5245 12.6218C41.9947 12.427 42.4218 12.1416 42.7817 11.7818C43.1415 11.422 43.4269 10.9948 43.6217 10.5246C43.8164 10.0545 43.9166 9.55062 43.9166 9.04175C43.9166 8.53288 43.8164 8.02899 43.6217 7.55885C43.4269 7.08871 43.1415 6.66154 42.7817 6.30171C42.4218 5.94188 41.9947 5.65645 41.5245 5.46172C41.0544 5.26698 40.5505 5.16675 40.0416 5.16675ZM54.25 12.9167C53.5648 12.9167 52.9077 13.1889 52.4233 13.6734C51.9388 14.1579 51.6666 14.8149 51.6666 15.5001C51.6666 16.1852 51.9388 16.8423 52.4233 17.3268C52.9077 17.8112 53.5648 18.0834 54.25 18.0834C54.9351 18.0834 55.5922 17.8112 56.0767 17.3268C56.5611 16.8423 56.8333 16.1852 56.8333 15.5001C56.8333 14.8149 56.5611 14.1579 56.0767 13.6734C55.5922 13.1889 54.9351 12.9167 54.25 12.9167Z" fill="#7A4787"/>
<path d="M55.8 28.52C55.4931 28.2815 55.1349 28.1177 54.7538 28.0414C54.3727 27.9652 53.9791 27.9787 53.6041 28.0808C52.855 28.2616 52.2608 28.365 51.6925 28.365C47.43 28.365 43.9425 24.8775 43.9425 20.7441C43.9425 20.6666 43.9941 20.4083 43.9941 20.305C44.02 19.4783 43.6583 18.7033 43.0383 18.1866C42.3925 17.67 41.54 17.4891 40.765 17.6958C40.0158 17.9025 39.3958 17.98 38.8016 17.98C34.5391 17.98 31.0516 14.4925 31.0516 10.2041C31.0516 9.63579 31.1291 9.04162 31.31 8.34412C31.4119 7.94511 31.416 7.52738 31.3219 7.12644C31.2278 6.7255 31.0383 6.35321 30.7695 6.04124C30.5006 5.72927 30.1604 5.48684 29.7777 5.33456C29.3951 5.18229 28.9813 5.12467 28.5716 5.16662C15.19 6.45829 5.16663 17.5408 5.16663 30.9483C5.16663 45.2341 16.7658 56.8333 31 56.8333C45.2341 56.8333 56.8333 45.2083 56.8333 30.9483V30.535C56.8075 29.7341 56.42 29.0108 55.8 28.52ZM23.25 20.6666C24.6708 20.6666 25.8333 21.8291 25.8333 23.25C25.8333 24.6708 24.6708 25.8333 23.25 25.8333C21.8291 25.8333 20.6666 24.6708 20.6666 23.25C20.6666 21.8291 21.8291 20.6666 23.25 20.6666ZM19.375 36.1666C17.2308 36.1666 15.5 34.4358 15.5 32.2916C15.5 30.1475 17.2308 28.4166 19.375 28.4166C21.5191 28.4166 23.25 30.1475 23.25 32.2916C23.25 34.4358 21.5191 36.1666 19.375 36.1666ZM27.125 46.5C24.9808 46.5 23.25 44.7691 23.25 42.625C23.25 40.4808 24.9808 38.75 27.125 38.75C29.2691 38.75 31 40.4808 31 42.625C31 44.7691 29.2691 46.5 27.125 46.5ZM32.2916 33.5833C30.1475 33.5833 28.4166 31.8525 28.4166 29.7083C28.4166 27.5641 30.1475 25.8333 32.2916 25.8333C34.4358 25.8333 36.1666 27.5641 36.1666 29.7083C36.1666 31.8525 34.4358 33.5833 32.2916 33.5833ZM38.75 41.3333C37.3291 41.3333 36.1666 40.1708 36.1666 38.75C36.1666 37.3291 37.3291 36.1666 38.75 36.1666C40.1708 36.1666 41.3333 37.3291 41.3333 38.75C41.3333 40.1708 40.1708 41.3333 38.75 41.3333Z" fill="#7A4787"/>
</svg>
