<svg width="55" height="56" viewBox="0 0 55 56" fill="none" xmlns="http://www.w3.org/2000/svg">
<path d="M4.3421 0C5.4937 0 6.59813 0.465158 7.41244 1.29314C8.22674 2.12113 8.68421 3.24412 8.68421 4.41507C8.68421 6.29883 9.28053 8.35331 10.3255 10.4461C11.0376 9.25981 11.8848 8.16317 12.8497 7.1789C13.6643 6.35065 14.7691 5.88534 15.9211 5.88534C16.4914 5.88534 17.0563 5.99958 17.5832 6.22153C18.1102 6.44348 18.589 6.7688 18.9924 7.1789C19.3957 7.58901 19.7156 8.07588 19.9339 8.61171C20.1522 9.14755 20.2645 9.72185 20.2645 10.3018C20.2645 10.8818 20.1522 11.4561 19.9339 11.9919C19.7156 12.5278 19.3957 13.0146 18.9924 13.4248C17.5797 14.8611 16.7924 16.7155 16.28 18.3932C16.8551 18.9563 17.4051 19.4636 17.93 19.9149C20.9087 18.4298 24.1825 17.6585 27.5 17.6603C30.8165 17.6589 34.0893 18.4302 37.0671 19.9149C37.5882 19.4646 38.1468 18.9554 38.7171 18.3932C38.2047 16.7155 37.4203 14.8611 36.0076 13.4248C35.6043 13.0146 35.2844 12.5278 35.0661 11.9919C34.8478 11.4561 34.7355 10.8818 34.7355 10.3018C34.7355 9.1305 35.1931 8.00716 36.0076 7.1789C36.8222 6.35065 37.927 5.88534 39.0789 5.88534C40.2309 5.88534 41.3357 6.35065 42.1503 7.1789C43.1634 8.21203 43.9942 9.32757 44.6745 10.4461C45.7195 8.35331 46.3158 6.29589 46.3158 4.41507C46.3158 3.24412 46.7733 2.12113 47.5876 1.29314C48.4019 0.465158 49.5063 0 50.6579 0C51.8095 0 52.9139 0.465158 53.7282 1.29314C54.5425 2.12113 55 3.24412 55 4.41507C55 10.2194 52.2008 15.5705 49.2453 19.5735C47.684 21.6803 45.9402 23.6406 44.0347 25.4308C47.3823 29.419 49.2179 34.4924 49.2105 39.7356C49.2105 45.3869 47.1176 50.5496 43.6816 54.4525C43.3058 54.8999 42.8458 55.2664 42.3287 55.5304C41.8116 55.7944 41.2478 55.9507 40.6705 55.9901C40.0932 56.0295 39.5139 55.9511 38.9668 55.7596C38.4197 55.5681 37.9157 55.2674 37.4845 54.875C37.0533 54.4827 36.7036 54.0067 36.4559 53.475C36.2082 52.9432 36.0675 52.3665 36.0421 51.7788C36.0167 51.191 36.1071 50.604 36.308 50.0522C36.5088 49.5004 36.8162 48.9951 37.2118 48.5658C38.8879 46.6599 39.9857 44.3014 40.3726 41.7752C40.7595 39.2489 40.4191 36.6627 39.3924 34.3288C38.3658 31.9949 36.6967 30.013 34.5867 28.6224C32.4767 27.2317 30.0159 26.4917 27.5014 26.4917C24.987 26.4917 22.5262 27.2317 20.4162 28.6224C18.3062 30.013 16.6371 31.9949 15.6105 34.3288C14.5838 36.6627 14.2434 39.2489 14.6303 41.7752C15.0172 44.3014 16.115 46.6599 17.7911 48.5658C18.5509 49.4397 18.9397 50.5839 18.8726 51.7484C18.8054 52.9129 18.2878 54.0031 17.4327 54.7808C16.5776 55.5585 15.4546 55.9605 14.309 55.8989C13.1633 55.8374 12.0882 55.3174 11.3184 54.4525C7.7533 50.4082 5.78415 45.1668 5.78947 39.7356C5.78129 34.4927 7.61589 29.4195 10.9624 25.4308C9.05692 23.6406 7.3131 21.6803 5.75184 19.5735C2.8021 15.5705 0 10.2194 0 4.41507C0 3.24412 0.457471 2.12113 1.27177 1.29314C2.08608 0.465158 3.19051 0 4.3421 0Z" fill="#7A4787"/>
</svg>
