<svg width="63" height="63" viewBox="0 0 63 63" fill="none" xmlns="http://www.w3.org/2000/svg">
<path fill-rule="evenodd" clip-rule="evenodd" d="M28.368 0.292476C28.7731 0.472378 29.1388 0.730327 29.4442 1.05159C29.7497 1.37285 29.9888 1.75113 30.148 2.16483C30.3072 2.57853 30.3834 3.01954 30.3721 3.46268C30.3609 3.90581 30.2625 4.34239 30.0825 4.74748C29.4525 6.16948 28.836 8.37898 28.332 11.1825C37.4906 10.8595 46.6078 9.79095 55.593 7.98748C56.4714 7.81263 57.3832 7.99389 58.128 8.49138C58.8727 8.98886 59.3894 9.76183 59.5642 10.6402C59.7391 11.5186 59.5578 12.4305 59.0603 13.1753C58.5628 13.92 57.7899 14.4366 56.9115 14.6115C47.187 16.5465 37.3365 17.694 27.477 17.964C27.2475 20.7855 27.1395 23.814 27.18 26.919C30.4785 26.5005 33.687 26.541 36.4725 27.054C37.7985 27.303 39.09 27.6165 40.347 27.9945C40.506 27.0795 40.56 26.262 40.509 25.542C40.4664 25.0933 40.5141 24.6405 40.6494 24.2106C40.7846 23.7806 41.0046 23.3821 41.2964 23.0385C41.5882 22.695 41.9458 22.4133 42.3482 22.2102C42.7506 22.0072 43.1896 21.8867 43.6393 21.8561C44.089 21.8254 44.5403 21.8851 44.9665 22.0317C45.3927 22.1783 45.7853 22.4088 46.121 22.7096C46.4567 23.0103 46.7288 23.3753 46.9211 23.783C47.1135 24.1906 47.2222 24.6326 47.241 25.083C47.3468 26.9483 47.1616 28.8187 46.692 30.627C51.066 33.0255 54.5175 36.342 56.34 40.275C57.933 43.704 58.239 47.5515 56.79 51.3495C55.3725 55.0845 52.38 58.4595 47.9655 61.3305C47.2148 61.818 46.3011 61.9874 45.4256 61.8013C44.55 61.6152 43.7842 61.0889 43.2967 60.3382C42.8092 59.5875 42.6398 58.6739 42.8259 57.7983C43.012 56.9228 43.5383 56.157 44.289 55.6695C47.889 53.334 49.7115 50.9805 50.4855 48.951C50.8509 48.0133 51.0156 47.0094 50.9691 46.0041C50.9226 44.9988 50.6659 44.0144 50.2155 43.1145C49.212 40.9455 47.1735 38.7855 44.298 37.0395C42.6438 40.3454 40.6144 43.4499 38.25 46.2915C36.452 48.4824 34.4692 50.5149 32.3235 52.3665C33.3855 54.324 34.6005 55.9035 35.946 57.06C36.6187 57.6444 37.033 58.4712 37.0985 59.3599C37.164 60.2487 36.8753 61.1272 36.2954 61.8039C35.7156 62.4806 34.8916 62.9005 34.0033 62.972C33.1151 63.0435 32.2346 62.7607 31.554 62.1855C29.6647 60.5238 28.0676 58.557 26.829 56.367C23.85 58.149 20.709 59.4135 17.5275 59.877C14.8905 60.264 11.6955 60.084 8.90996 58.896C6.01646 57.6675 3.36146 55.2195 2.78996 51.2235C1.40846 41.535 7.30346 34.7715 14.2965 30.9735C16.2666 29.9201 18.3305 29.0523 20.4615 28.3815C20.3675 24.9222 20.4471 21.4603 20.7 18.009C15.1493 17.9329 9.60659 17.5633 4.09496 16.902C3.20582 16.7952 2.39553 16.3395 1.84235 15.6353C1.28916 14.931 1.0384 14.0359 1.14521 13.1467C1.25203 12.2576 1.70768 11.4473 2.41192 10.8941C3.11617 10.3409 4.01132 10.0902 4.90046 10.197C10.4 10.8536 15.9311 11.2111 21.4695 11.268C22.0545 7.57798 22.8735 4.33798 23.913 2.00698C24.0929 1.60185 24.3508 1.23613 24.6721 0.930699C24.9933 0.625273 25.3716 0.386125 25.7853 0.226914C26.199 0.0677025 26.64 -0.00845325 27.0832 0.002796C27.5263 0.0140453 27.9629 0.112479 28.368 0.292476ZM20.907 35.37C19.734 35.811 18.603 36.3255 17.514 36.9135C11.9295 39.942 8.63546 44.4195 9.47246 50.2785C9.62996 51.3765 10.26 52.1415 11.5515 52.6905C12.9555 53.2845 14.85 53.4555 16.5465 53.2035C18.9315 52.857 21.483 51.786 24.0165 50.175C23.8455 49.693 23.6819 49.2085 23.526 48.7215C22.221 44.568 21.3795 39.987 20.907 35.37ZM29.6595 45.675C30.8355 44.535 31.9635 43.311 33.0435 42.003C35.0009 39.6483 36.6941 37.086 38.0925 34.362C37.1553 34.0961 36.2063 33.8739 35.2485 33.696C33.0345 33.2865 30.3435 33.2775 27.5265 33.6825C27.9045 37.9035 28.5975 42.012 29.6595 45.675Z" fill="#7A4787"/>
</svg>
