<svg width="61" height="55" viewBox="0 0 61 55" fill="none" xmlns="http://www.w3.org/2000/svg">
<path d="M8.00909 11.8928L7.62578 11.2069C7.38369 10.7631 6.73812 10.7631 6.47586 11.2069L6.11272 11.8928C6.0522 11.9937 5.9715 12.0946 5.85046 12.1551L5.16454 12.5182C4.72071 12.7805 4.72071 13.426 5.16454 13.6681L5.85046 14.0514C5.9715 14.112 6.0522 14.1927 6.11272 14.3137L6.47586 14.9795C6.73812 15.4233 7.38369 15.4233 7.62578 14.9795L8.00909 14.3137C8.06961 14.1927 8.15031 14.112 8.27135 14.0514L8.95727 13.6681C9.4011 13.4059 9.4011 12.7603 8.95727 12.5182L8.27135 12.1551C8.16085 12.0943 8.0699 12.0033 8.00909 11.8928ZM12.0621 15.9458L11.6788 15.2599C11.4367 14.816 10.7911 14.816 10.5288 15.2599L10.1657 15.9458C10.1052 16.0467 10.0245 16.1475 9.90344 16.2081L9.21752 16.5712C8.77369 16.8335 8.77369 17.479 9.21752 17.7211L9.90344 18.1044C10.0245 18.1649 10.1052 18.2456 10.1657 18.3667L10.5288 19.0324C10.7911 19.4763 11.4367 19.4763 11.6788 19.0324L12.0621 18.3667C12.1226 18.2456 12.2033 18.1649 12.3243 18.1044L13.0102 17.7211C13.4541 17.4589 13.4541 16.8133 13.0102 16.5712L12.3243 16.2081C12.2138 16.1472 12.1229 16.0563 12.0621 15.9458ZM7.62578 21.3303L7.98891 22.0162C8.06961 22.1171 8.15031 22.2179 8.27135 22.2784L8.95727 22.6416C9.4011 22.8837 9.4011 23.5292 8.95727 23.7915L8.27135 24.1748C8.15031 24.2353 8.06961 24.316 8.00909 24.4371L7.64595 25.123C7.40386 25.5668 6.75829 25.5668 6.49603 25.123L6.11272 24.4371C6.05867 24.3217 5.96587 24.2289 5.85046 24.1748L5.16454 23.8117C4.72071 23.5696 4.72071 22.924 5.16454 22.6618L5.85046 22.2986C5.9715 22.2179 6.0522 22.1171 6.11272 22.0162L6.47586 21.3303C6.73812 20.8864 7.38369 20.8864 7.62578 21.3303ZM12.0479 28.0543L11.6848 27.3684C11.6297 27.2636 11.547 27.1759 11.4457 27.1147C11.3444 27.0535 11.2282 27.0211 11.1098 27.0211C10.9915 27.0211 10.8753 27.0535 10.774 27.1147C10.6727 27.1759 10.59 27.2636 10.5349 27.3684L10.1718 28.0543C10.1112 28.1753 10.0104 28.256 9.90949 28.3166L9.22357 28.6797C8.77974 28.942 8.77974 29.5875 9.22357 29.8296L9.90949 30.1927C10.0305 30.2533 10.1112 30.3541 10.1718 30.455L10.5349 31.1409C10.7971 31.5848 11.4427 31.5848 11.6848 31.1409L12.0681 30.455C12.1286 30.334 12.2295 30.2533 12.3304 30.1927L12.9961 29.8296C13.44 29.5673 13.44 28.9218 12.9961 28.6797L12.3102 28.3166C12.1997 28.2557 12.1088 28.1648 12.0479 28.0543ZM37.8869 33.5235L38.2501 34.2094C38.3106 34.3103 38.3913 34.4112 38.5123 34.4717L39.1983 34.8348C39.6421 35.0769 39.6421 35.7225 39.1983 35.9847L38.5325 36.3479C38.4316 36.4084 38.3308 36.4891 38.2702 36.6101L37.9071 37.2961C37.665 37.7399 37.0195 37.7399 36.7572 37.2961L36.3941 36.6101C36.3333 36.4996 36.2423 36.4087 36.1318 36.3479L35.4459 35.9847C35.002 35.7426 35.002 35.0971 35.4459 34.8348L36.1318 34.4717C36.2327 34.4112 36.3335 34.3305 36.3941 34.2094L36.7572 33.5235C36.9993 33.0595 37.6449 33.0595 37.8869 33.5235ZM31.1891 40.9133L30.826 40.2274C30.7709 40.1226 30.6882 40.0348 30.5869 39.9736C30.4856 39.9124 30.3694 39.8801 30.251 39.8801C30.1327 39.8801 30.0165 39.9124 29.9152 39.9736C29.8139 40.0348 29.7312 40.1226 29.6761 40.2274L29.3129 40.9133C29.2524 41.0343 29.1516 41.115 29.0507 41.1755L28.3648 41.5387C27.9209 41.8009 27.9209 42.4465 28.3648 42.6886L29.0507 43.0517C29.1717 43.1122 29.2524 43.2131 29.3129 43.314L29.6761 43.9999C29.9383 44.4437 30.5839 44.4437 30.826 43.9999L31.1891 43.314C31.2497 43.1929 31.3505 43.1122 31.4514 43.0517L32.1373 42.6886C32.5812 42.4263 32.5812 41.7808 32.1373 41.5387L31.4514 41.1755C31.3409 41.1147 31.25 41.0238 31.1891 40.9133ZM23.7651 33.4146L24.1282 34.1005C24.1887 34.2013 24.2694 34.3022 24.3905 34.3627L25.0764 34.7259C25.5202 34.968 25.5202 35.6135 25.0764 35.8758L24.3905 36.2389C24.2896 36.2994 24.1887 36.3801 24.1282 36.5012L23.7651 37.1871C23.523 37.6309 22.8774 37.6309 22.6151 37.1871L22.252 36.5012C22.1909 36.396 22.0995 36.3116 21.9897 36.2591L21.3038 35.896C20.86 35.6539 20.86 35.0083 21.3038 34.746L21.9897 34.3829C22.0906 34.3224 22.1915 34.2417 22.252 34.1206L22.6151 33.4347C22.8774 32.9707 23.523 32.9707 23.7651 33.4146ZM38.2743 46.2332L37.9112 45.5473C37.6691 45.1034 37.0235 45.1034 36.7612 45.5473L36.3981 46.2332C36.3376 46.3542 36.2367 46.4349 36.1358 46.4954L35.4499 46.8586C35.0061 47.1208 35.0061 47.7664 35.4499 48.0085L36.1358 48.3716C36.2569 48.4322 36.3376 48.533 36.3981 48.6339L36.7612 49.3198C37.0235 49.7637 37.6691 49.7637 37.9112 49.3198L38.2743 48.6339C38.3348 48.5129 38.4357 48.4322 38.5365 48.3716L39.2225 48.0085C39.6663 47.7462 39.6663 47.1007 39.2225 46.8586L38.5365 46.4954C38.426 46.4346 38.3351 46.3437 38.2743 46.2332ZM23.7651 45.5473L24.1282 46.2332C24.1887 46.3341 24.2694 46.4349 24.3905 46.4954L25.0764 46.8586C25.5202 47.1007 25.5202 47.7462 25.0764 48.0085L24.3905 48.3716C24.2896 48.4322 24.1887 48.5129 24.1282 48.6339L23.7651 49.3198C23.523 49.7637 22.8774 49.7637 22.6151 49.3198L22.252 48.6339C22.1909 48.5287 22.0995 48.4443 21.9897 48.3918L21.3038 48.0287C20.86 47.7866 20.86 47.141 21.3038 46.8788L21.9897 46.5156C22.0906 46.4551 22.1915 46.3744 22.252 46.2534L22.6151 45.5674C22.8774 45.1034 23.523 45.1034 23.7651 45.5473ZM52.8965 11.2069L52.5132 11.8928C52.4527 11.9937 52.372 12.0946 52.2509 12.1551L51.565 12.5182C51.1212 12.7603 51.1212 13.4059 51.565 13.6681L52.2509 14.0313C52.372 14.112 52.4527 14.1927 52.5132 14.3137L52.8763 14.9996C53.1184 15.4435 53.764 15.4435 54.0262 14.9996L54.3894 14.3137C54.4701 14.1927 54.5508 14.112 54.6718 14.0514L55.3577 13.6883C55.8016 13.4462 55.8016 12.8007 55.3577 12.5384L54.6718 12.1551C54.5613 12.0943 54.4704 12.0033 54.4095 11.8928L54.0464 11.2069C53.7841 10.7631 53.1386 10.7631 52.8965 11.2069ZM48.4683 15.9377L48.8516 15.2518C49.0937 14.808 49.7392 14.808 50.0015 15.2518L50.3646 15.9377C50.4252 16.0386 50.5058 16.1395 50.6269 16.2L51.3128 16.5833C51.7566 16.8456 51.7566 17.4911 51.3128 17.7332L50.6269 18.0964C50.5058 18.1569 50.4252 18.2376 50.3445 18.3586L49.9813 19.0445C49.7191 19.4884 49.0735 19.4884 48.8314 19.0445L48.4683 18.3586C48.4087 18.242 48.3179 18.1442 48.206 18.0762L47.5201 17.713C47.0763 17.4508 47.0763 16.8052 47.5201 16.5631L48.206 16.2C48.327 16.1395 48.4077 16.0386 48.4683 15.9377ZM52.8965 21.3424L52.5333 22.0283C52.4728 22.1292 52.3921 22.23 52.2711 22.2906L51.5852 22.6537C51.1413 22.8958 51.1413 23.5413 51.5852 23.8036L52.2711 24.1667C52.372 24.2273 52.4728 24.308 52.5333 24.429L52.8965 25.1149C53.1386 25.5588 53.7841 25.5588 54.0464 25.1149L54.4095 24.429C54.4701 24.3281 54.5508 24.2273 54.6718 24.1667L55.3577 23.8036C55.8016 23.5615 55.8016 22.9159 55.3577 22.6537L54.6718 22.2906C54.5613 22.2297 54.4704 22.1388 54.4095 22.0283L54.0464 21.3424C53.7841 20.8985 53.1386 20.8985 52.8965 21.3424ZM48.4925 28.0523L48.8556 27.3664C49.0977 26.9024 49.7634 26.9024 50.0055 27.3664L50.3687 28.0523C50.4292 28.1733 50.5301 28.254 50.6309 28.3145L51.3168 28.6777C51.7607 28.9399 51.7607 29.5855 51.3168 29.8276L50.6309 30.1907C50.5099 30.2513 50.4292 30.3521 50.3687 30.453L50.0055 31.1389C49.7433 31.5827 49.0977 31.5827 48.8556 31.1389L48.4925 30.453C48.4317 30.3425 48.3407 30.2515 48.2302 30.1907L47.5443 29.8276C47.1005 29.5653 47.1005 28.9198 47.5443 28.6777L48.2302 28.3145C48.3513 28.254 48.432 28.1531 48.4925 28.0523Z" fill="#7A4787"/>
<path d="M11.4004 2.20305C14.1976 0.750056 17.3045 -0.00571594 20.4565 3.25487e-05H26.2263C26.2707 3.25487e-05 26.3144 0.0013772 26.3575 0.00406708H34.1649L34.296 3.25487e-05H40.328C43.3281 -0.00314594 46.2822 0.737111 48.9263 2.15463L48.9303 2.15866L57.4559 6.69178L57.5345 6.73617C57.7504 6.86327 57.9481 6.97221 58.1539 7.08518L58.2386 7.13158C58.5977 7.32525 59.1969 7.65006 59.6488 8.12415C60.3004 8.81007 60.5425 9.63317 60.5425 10.4906V21.4249C60.5411 25.361 59.1038 29.1614 56.5002 32.1134C53.8966 35.0654 50.3055 36.9662 46.4005 37.4593V52.8562C46.4005 53.3913 46.1879 53.9044 45.8096 54.2827C45.4312 54.6611 44.9181 54.8736 44.383 54.8736H16.1393C15.6042 54.8736 15.0911 54.6611 14.7128 54.2827C14.3344 53.9044 14.1219 53.3913 14.1219 52.8562V37.3504C6.38107 36.148 0 29.5269 0 21.3846V10.2687C0 9.07637 0.570927 8.2109 1.19834 7.64602C1.71076 7.18403 2.33414 6.86326 2.69526 6.67766L2.75578 6.64538L3.11287 6.45575L11.4004 2.20305ZM20.4565 4.03485C17.9506 4.02858 15.4802 4.62868 13.2564 5.78395L13.2483 5.79L4.97695 10.0346C4.85389 10.1032 4.72881 10.1658 4.62189 10.2223L4.61584 10.2263C4.4187 10.3268 4.22492 10.4338 4.03482 10.5471V21.3846C4.03482 27.8242 9.56858 33.2328 16.1393 33.4991V28.2438H16.1191V16.1393H16.1393V14.134C16.1393 12.7359 18.1789 12.7097 18.1789 14.134V16.1393H25.7341L25.722 16.1353L28.6856 11.2532L24.336 4.03485H20.4565ZM18.1789 35.5226H18.1567V50.8388H42.3656V28.2438H18.1789V35.5226ZM44.383 14.134V16.1393H44.4032V28.2438H44.383V33.5496C47.5987 33.5496 50.6826 32.2722 52.9565 29.9984C55.2303 27.7245 56.5077 24.6406 56.5077 21.4249V10.7851H56.5036C56.4243 10.738 56.3288 10.6842 56.2172 10.6237L56.2091 10.6197C56.0141 10.5161 55.7854 10.3877 55.5232 10.2344L47.0258 5.71536L47.0178 5.70931C44.9605 4.6069 42.6621 4.0316 40.328 4.03485H36.146L28.851 16.1393H42.3656V14.134C42.3656 12.7097 44.383 12.7359 44.383 14.134ZM27.4449 4.03889L30.237 8.69911L33.0674 4.03889H27.4449Z" fill="#7A4787"/>
</svg>
