<svg width="67" height="60" viewBox="0 0 67 60" fill="none" xmlns="http://www.w3.org/2000/svg">
<path d="M13.9063 33.375C14.2153 32.4479 14.4477 31.5678 14.6034 30.7347C14.7592 29.9015 14.8358 28.9893 14.8333 27.9979C14.8333 26.1437 14.3698 24.5368 13.4427 23.1771C12.5156 21.8174 11.4649 20.3649 10.2906 18.8198C9.11632 17.2747 8.06563 15.5589 7.13854 13.6726C6.21146 11.7863 5.74792 9.36107 5.74792 6.39687C5.74792 5.46979 5.79489 4.4809 5.88883 3.43021C5.98278 2.37951 6.15213 1.23611 6.39688 0H13.9063C13.5972 1.42153 13.397 2.59583 13.3055 3.52292C13.214 4.45 13.1671 5.31528 13.1646 6.11875C13.1646 8.40556 13.6442 10.3055 14.6034 11.8185C15.5626 13.3315 16.5973 14.8309 17.7073 16.3167C18.8173 17.8025 19.8532 19.4403 20.8149 21.2302C21.7766 23.0201 22.2549 25.3378 22.25 28.1833C22.25 29.0486 22.1882 29.9139 22.0646 30.7792C21.941 31.6444 21.7556 32.5097 21.5083 33.375H13.9063ZM28.7396 33.375C29.0486 32.4479 29.281 31.5678 29.4368 30.7347C29.5925 29.9015 29.6691 28.9893 29.6667 27.9979C29.6667 26.1437 29.2031 24.5368 28.276 23.1771C27.349 21.8174 26.2983 20.3649 25.124 18.8198C23.9497 17.2747 22.899 15.5589 21.9719 13.6726C21.0448 11.7863 20.5813 9.36107 20.5813 6.39687C20.5813 5.46979 20.6282 4.4809 20.7222 3.43021C20.8161 2.37951 20.9855 1.23611 21.2302 0H28.7396C28.4306 1.42153 28.2142 2.59583 28.0906 3.52292C27.967 4.45 27.9052 5.31528 27.9052 6.11875C27.9052 8.40556 28.3836 10.3055 29.3403 11.8185C30.2971 13.3315 31.3329 14.8309 32.4479 16.3167C33.5629 17.8025 34.5988 19.4403 35.5555 21.2302C36.5122 23.0201 36.9906 25.3378 36.9906 28.1833C36.9906 29.0486 36.9437 29.9139 36.8497 30.7792C36.7558 31.6444 36.5864 32.5097 36.3417 33.375H28.7396ZM43.5729 33.375C43.8819 32.4479 44.1143 31.5678 44.2701 30.7347C44.4258 29.9015 44.5025 28.9893 44.5 27.9979C44.5 26.1437 44.0365 24.5368 43.1094 23.1771C42.1823 21.8174 41.1316 20.3649 39.9573 18.8198C38.783 17.2747 37.7323 15.5589 36.8052 13.6726C35.8781 11.7863 35.4146 9.36107 35.4146 6.39687C35.4146 5.46979 35.4616 4.4809 35.5555 3.43021C35.6494 2.37951 35.8188 1.23611 36.0635 0H43.5729C43.2639 1.42153 43.0476 2.59583 42.924 3.52292C42.8003 4.45 42.7385 5.31528 42.7385 6.11875C42.7385 8.40556 43.2169 10.3055 44.1737 11.8185C45.1304 13.3315 46.1663 14.8309 47.2812 16.3167C48.3962 17.8025 49.4321 19.4403 50.3888 21.2302C51.3456 23.0201 51.824 25.3378 51.824 28.1833C51.824 29.0486 51.777 29.9139 51.683 30.7792C51.5891 31.6444 51.4197 32.5097 51.175 33.375H43.5729ZM33.375 59.3333C24.166 59.3333 16.3006 57.5249 9.77888 53.908C3.25715 50.2912 -0.00247082 45.9191 1.4052e-06 40.7917C1.4052e-06 38.134 0.957988 35.6161 2.87396 33.2378C4.78993 30.8595 7.54028 28.773 11.125 26.9781V35.6C9.88889 36.4653 8.96181 37.3466 8.34375 38.244C7.7257 39.1415 7.41667 39.9907 7.41667 40.7917C7.41667 43.5729 10.1052 46.123 15.4823 48.442C20.8594 50.7609 26.8236 51.9191 33.375 51.9167C39.9264 51.9142 45.8906 50.756 51.2677 48.442C56.6448 46.128 59.3333 43.5779 59.3333 40.7917C59.3333 39.9882 59.0243 39.139 58.4062 38.244C57.7882 37.3491 56.8611 36.4678 55.625 35.6V26.9781C59.2097 28.7705 61.9601 30.857 63.876 33.2378C65.792 35.6185 66.75 38.1365 66.75 40.7917C66.75 45.9215 63.5052 50.2949 57.0156 53.9118C50.526 57.5286 42.6458 59.3358 33.375 59.3333Z" fill="#7A4787"/>
</svg>
