<svg width="82" height="50" viewBox="0 0 82 50" fill="none" xmlns="http://www.w3.org/2000/svg">
<path d="M30.5224 0C28.9685 0 27.7476 1.22222 27.7476 2.77778H15.2612C6.82592 2.77778 0 9.61111 0 18.0556C0 22.6667 2.05332 26.7222 5.21656 29.5C2.10882 31.5 0 34.9444 0 38.8889C0 45 4.99457 50 11.0991 50H55.4953C61.5997 50 66.5943 45 66.5943 38.8889C66.5943 36.1667 65.5399 33.7222 63.9305 31.7778L76.0285 37.1111C78.0818 38.1111 80.5791 37.2778 81.578 35.2222C82.577 33.1667 81.7445 30.6667 79.6912 29.6667L79.3582 29.5L69.3136 25.0556L78.3593 23.5556C80.6346 23.2222 82.1885 21.1111 81.8555 18.8333C81.7137 17.8348 81.2124 16.9224 80.446 16.2677C79.6796 15.613 78.7008 15.261 77.6934 15.2778C77.4714 15.2778 77.2494 15.2778 76.9719 15.3333L65.1514 17.3333C62.4877 10.8333 55.7172 4.33333 44.3962 3.05556V2.77778C44.3962 1.22222 43.1753 0 41.6214 0H30.5224ZM33.2972 5.55556H38.8467V44.4444H33.2972V5.55556ZM52.7205 27.7778C54.1634 27.7778 55.2733 28.8889 55.4398 30.2778L55.8837 29.5556C56.6607 28.2222 58.3255 27.7778 59.6574 28.5556C60.9893 29.3333 61.4333 31 60.6563 32.3333L59.2135 34.8333C60.3234 35.8333 61.0448 37.2222 61.0448 38.8889C61.0448 42 58.603 44.4444 55.4953 44.4444H44.3962V33.3333H49.9457V30.5556C49.9457 29 51.1666 27.7778 52.7205 27.7778ZM13.5408 28.1667C14.5953 28.0556 15.7052 28.5556 16.2601 29.5556L17.37 31.5C17.7381 31.0722 18.2288 30.7682 18.7755 30.6293C19.3221 30.4904 19.8983 30.5233 20.4256 30.7235C20.9529 30.9237 21.4059 31.2816 21.723 31.7485C22.0402 32.2155 22.206 32.7688 22.1981 33.3333H27.7476V44.4444H11.0991C7.99132 44.4444 5.54953 42 5.54953 38.8889C5.54953 35.7778 7.99132 33.3333 11.0991 33.3333H12.0425L11.4875 32.3333C11.1134 31.6921 11.0084 30.9286 11.1956 30.21C11.3829 29.4914 11.8471 28.8765 12.4864 28.5C12.8194 28.3333 13.2079 28.2222 13.5408 28.1667Z" fill="#7A4787"/>
</svg>
